<?xml version="1.0" encoding="utf-8"?>
<!-- Generator: Adobe Illustrator 21.1.0, SVG Export Plug-In . SVG Version: 6.00 Build 0)  -->
<svg version="1.1" id="Capa_1" xmlns="http://www.w3.org/2000/svg" xmlns:xlink="http://www.w3.org/1999/xlink" x="0px" y="0px"
	 viewBox="0 0 395 229" style="enable-background:new 0 0 395 229;" xml:space="preserve">
<style type="text/css">
	.st0{fill:none;}
	.st1{fill:#1D1D1B;}
	.st2{font-family:'Lato-Regular';}
	.st3{font-size:36px;}
	.st4{letter-spacing:6;}
	.st5{fill:#F2B185;}
	.st6{fill:#DB9768;}
	.st7{fill:#E4E3E2;}
	.st8{fill:#FFD59D;}
	.st9{fill:#A0B0C0;}
	.st10{fill:#00B08E;}
	.st11{fill:#5DC3AD;}
	.st12{fill:#A5B8C4;}
	.st13{fill:#0B050C;}
</style>
<rect x="85" y="193" class="st0" width="256" height="50.7"/>
<text transform="matrix(1 0 0 1 84.9907 219.5527)" class="st1 st2 st3 st4">SPA SALON</text>
<g>
	<path class="st5" d="M292.2,184.2h-50.5c-3.1,0-5.6-2.5-5.6-5.6v-56.1c0-9.3,7.5-16.8,16.8-16.8H281c9.3,0,16.8,7.5,16.8,16.8v56.1
		C297.8,181.7,295.3,184.2,292.2,184.2L292.2,184.2z"/>
	<path class="st6" d="M292.2,175.8h-50.5c-3.1,0-5.6-2.5-5.6-5.6v8.4c0,3.1,2.5,5.6,5.6,5.6h50.5c3.1,0,5.6-2.5,5.6-5.6v-8.4
		C297.8,173.3,295.3,175.8,292.2,175.8L292.2,175.8z"/>
	<path class="st7" d="M236.1,167.4H129.4l9.3-24.2c2.9-7.6,9.7-13,17.8-14.2l26.2-3.7h28.1l25.3,3.2V167.4L236.1,167.4z"/>
	<polygon class="st7" points="252.9,139.3 236.1,139.3 236.1,156.1 255.7,156.1 281,156.1 297.8,156.1 297.8,139.3 278.2,139.3 
		252.9,139.3 	"/>
	<path class="st6" d="M196.8,15.8c18.6,0,33.7,15.1,33.7,33.7c0,18.6-15.1,33.7-33.7,33.7s-33.7-15.1-33.7-33.7
		C163.1,30.9,178.2,15.8,196.8,15.8L196.8,15.8z"/>
	<polygon class="st6" points="250.1,94.4 283.8,94.4 283.8,108.4 250.1,108.4 250.1,94.4 	"/>
	<path class="st6" d="M196.8,32.6c21.7,0,39.3,17.6,39.3,39.3s-17.6,39.3-39.3,39.3s-39.3-17.6-39.3-39.3S175.1,32.6,196.8,32.6
		L196.8,32.6z"/>
	<polygon class="st8" points="182.8,125.3 182.8,114 210.8,114 210.8,125.3 196.8,136.5 182.8,125.3 	"/>
	<polygon class="st7" points="261.4,71.9 272.6,71.9 272.6,94.4 261.4,94.4 261.4,71.9 	"/>
	<polygon class="st9" points="292.2,71.9 255.7,71.9 255.7,60.7 264.2,60.7 292.2,66.3 292.2,71.9 	"/>
	<path class="st10" d="M281,164.5h-5.6c-12.4,0-22.5-10.1-22.5-22.5v-11.2h5.6c12.4,0,22.5,10.1,22.5,22.5V164.5L281,164.5z"/>
	<path class="st11" d="M203,138.8l-20.3-13.5l-15.2,2.2l24.4,16.9c3,2.1,4.8,5.5,4.8,9.2v13.8H208v-19.2
		C208,144.4,206.2,140.8,203,138.8L203,138.8z"/>
	<path class="st12" d="M230.5,167.4h5.6v-38.9l-25.3-3.2l14.1,14.1c1.8,1.8,2.9,4.2,3.2,6.7L230.5,167.4L230.5,167.4z"/>
	<polygon class="st11" points="205.8,141.4 225.2,127.1 210.8,125.3 196.8,134.6 205.8,141.4 	"/>
	<polygon class="st10" points="225.2,127.1 210.8,125.3 218,132.4 225.2,127.1 	"/>
	<path class="st8" d="M199.6,65.4c-7.3,2.1-17.3,3.7-30.9,3.7v22.5c0,15.5,12.6,28.1,28.1,28.1l0,0c15.5,0,28.1-12.6,28.1-28.1V69.1
		c-9.4,0-17.2-1.8-23.6-4.3L199.6,65.4L199.6,65.4z"/>
	<path class="st5" d="M219.3,68.9v22.7c0,14.6-11.1,26.5-25.3,27.9c0.9,0.1,1.9,0.1,2.8,0.1c15.5,0,28.1-12.6,28.1-28.1V69.1
		C222.9,69.1,221.1,69,219.3,68.9L219.3,68.9z"/>
	<path class="st13" d="M292.2,181.4h-50.5c-1.5,0-2.8-1.3-2.8-2.8v-19.6h17.7c4.6,5.2,11.3,8.4,18.8,8.4h8.4v-8.4H295v19.6
		C295,180.1,293.8,181.4,292.2,181.4L292.2,181.4z M210.8,164.5v-16.4c0-2-0.4-3.9-1.2-5.7l16.9-12.1l0,0l6.3,0.9l0.5,0.1v33.2
		H210.8L210.8,164.5z M141.4,144.2c2.6-6.6,8.5-11.4,15.6-12.4l10.2-1.5l0,0l23.3,16.3c2.2,1.6,3.6,4.2,3.6,6.9v11h-60.5
		L141.4,144.2L141.4,144.2z M182.1,128.2l19.4,12.9c2.3,1.6,3.7,4.2,3.7,7v16.4h-5.6v-11c0-4.6-2.2-8.9-6-11.5l-18.4-12.9
		L182.1,128.2L182.1,128.2z M196.8,122.5c4,0,7.7-0.8,11.2-2.1v3.4l-11.2,7.5l-11.2-7.5v-3.4C189.1,121.7,192.8,122.5,196.8,122.5
		L196.8,122.5z M171.5,91.6V71.9c11.2-0.2,20.9-1.5,28.9-3.8l0.9-0.3c6.4,2.4,13.4,3.8,20.7,4.1v19.7c0,13.9-11.3,25.3-25.3,25.3
		C182.9,116.8,171.5,105.5,171.5,91.6L171.5,91.6z M196.8,35.5c20.1,0,36.5,16.4,36.5,36.5c0,7-2,13.6-5.6,19.4v-25h-2.8
		c-11.3,0-21.5-2.7-30.4-8l-2.9,4.8c0.6,0.3,1.1,0.7,1.7,1c-7,1.5-15.3,2.2-24.6,2.2h-2.8v25c-3.6-5.8-5.6-12.4-5.6-19.4
		C160.3,51.8,176.7,35.5,196.8,35.5L196.8,35.5z M196.8,18.6c14.6,0,26.9,10.2,30,23.9c-7.6-7.8-18.3-12.7-30-12.7
		c-11.8,0-22.4,4.9-30,12.7C169.9,28.8,182.2,18.6,196.8,18.6L196.8,18.6z M218.5,129.2l-12.1,8.7c-0.5-0.5-1.1-1-1.8-1.4l-2.7-1.8
		l9.6-6.4L218.5,129.2L218.5,129.2z M281.1,142.1H295v11.2h-11.2C283.8,149.3,282.8,145.5,281.1,142.1L281.1,142.1z M255.7,142.1
		v-8.4h2.8c10.8,0,19.6,8.8,19.6,19.6v3.5l-14.7-17.6l-4.3,3.6l15.8,19C264.3,161.5,255.7,152.8,255.7,142.1L255.7,142.1z
		 M238.9,142.1h11.2c0,4,1,7.8,2.7,11.2h-13.9V142.1L238.9,142.1z M252.9,108.4H281c7.7,0,14,6.3,14,14v14h-17.7
		c-4.6-5.2-11.3-8.4-18.8-8.4h-8.4v8.4h-11.2v-14C238.9,114.7,245.2,108.4,252.9,108.4L252.9,108.4z M252.9,97.2H281v5.6h-28.1V97.2
		L252.9,97.2z M264.2,74.7h5.6v16.8h-5.6V74.7L264.2,74.7z M258.5,63.5h5.3l25.5,5.1v0.5h-30.9V63.5L258.5,63.5z M286.6,103.6V91.6
		h-11.2V74.7H295V64L264.7,58l-11.8-0.1v16.8h5.6v16.8h-11.2v12.1c-8.1,2.4-14,9.9-14,18.8v3.2l-19.6-2.9v-5.4
		c5.4-3.6,9.7-8.8,12-14.9l0.4-0.3l0.3-0.2c8.1-8,12.6-18.7,12.6-30.1c0-7.6-2.1-14.7-5.6-20.9v-1.5c0-20.1-16.4-36.5-36.5-36.5
		s-36.5,16.4-36.5,36.5V51c-3.6,6.2-5.6,13.3-5.6,20.9c0,11.4,4.5,22.1,12.6,30l0.8,0.8c2.4,6,6.5,11.2,11.9,14.7v5.4l-23.8,3.4
		c-9.1,1.3-16.7,7.4-20,15.9l-10.8,28h107.9v8.4c0,4.6,3.8,8.4,8.4,8.4h50.5c4.6,0,8.4-3.8,8.4-8.4v-56.1
		C300.6,113.6,294.7,106.1,286.6,103.6L286.6,103.6z"/>
	<path class="st13" d="M283.8,122.5v5.6h5.6v-5.6c0-4.6-3.8-8.4-8.4-8.4v5.6C282.5,119.6,283.8,120.9,283.8,122.5L283.8,122.5z"/>
</g>
</svg>
